[imgw=http://img832.imageshack.us/img832/7153/yftznkl.jpg]

Plot: 
After watching their best friend get murdered, a group of teens struggle to expose a local hero as the vicious killer and keep from becoming his next victims. 

IMDB:  
http://www.imdb.com/title/tt1781775/

Information:
Format                           : AVI
Format/Info                      : Audio Video Interleave
File size                        : 1.37 GiB
Duration                         : 1h 35mn
Overall bit rate                 : 2 047 Kbps

Video
ID                               : 0
Format                           : MPEG-4 Visual
Format profile                   : Advanced Simple@L5
Format settings, BVOP            : 2
Format settings, QPel            : No
Format settings, GMC             : No warppoints
Format settings, Matrix          : Default (H.263)
Muxing mode                      : Packed bitstream
Codec ID                         : XVID
Codec ID/Hint                    : XviD
Duration                         : 1h 35mn
Bit rate                         : 1 654 Kbps
Width                            : 720 pixels
Height                           : 400 pixels
Display aspect ratio             : 16:9
Frame rate                       : 29.970 fps
Color space                      : YUV
Chroma subsampling               : 4:2:0
Bit depth                        : 8 bits
Scan type                        : Progressive
Compression mode                 : Lossy
Bits/(Pixel*Frame)               : 0.192
Stream size                      : 1.11 GiB (81%)
Writing library                  : XviD 64

Audio
ID                               : 1
Format                           : AC-3
Format/Info                      : Audio Coding 3
Mode extension                   : CM (complete main)
Codec ID                         : 2000
Duration                         : 1h 35mn
Bit rate mode                    : Constant
Bit rate                         : 384 Kbps
Channel(s)                       : 6 channels
Channel positions                : Front: L C R, Side: L R, LFE
Sampling rate                    : 48.0 KHz
Bit depth                        : 16 bits
Compression mode                 : Lossy
Stream size                      : 263 MiB (19%)
Alignment                        : Aligned on interleaves
Interleave, duration             : 64 ms (1.92 video frames)
Interleave, preload duration     : 192 ms

Screene:

[imgw=http://img534.imageshack.us/img534/9747/beneaththedarkness2011d.jpg]
[imgw=http://img205.imageshack.us/img205/9747/beneaththedarkness2011d.jpg]
[imgw=http://img27.imageshack.us/img27/9747/beneaththedarkness2011d.jpg]
[imgw=http://img829.imageshack.us/img829/9747/beneaththedarkness2011d.jpg]
[imgw=http://img339.imageshack.us/img339/9747/beneaththedarkness2011d.jpg]

Notes: 


Video Source &gt; NTSC DVDR-NOYK... Thanks 
Audio Source &gt; NTSC DVDR-NOYK... Thanks 

Enjoy!

Respects to 26K, DTRG, JCRG, GooN, ViSiON, SANTi, INSPiRAL, REFiLL... 
And many others in the P2P and Scene world